<svg width="15" height="14" viewBox="0 0 15 14" fill="none" xmlns="http://www.w3.org/2000/svg">
<path fill-rule="evenodd" clip-rule="evenodd" d="M12.3249 4.48847H13.2437C13.6637 4.48847 14.0137 4.81847 14.0137 5.22704C14.0137 5.62775 13.6637 5.95775 13.2437 5.95775H12.9112L13.1387 6.24847C13.1327 6.58776 13.1349 6.99351 13.1369 7.3569V7.35695V7.35699C13.1378 7.52371 13.1387 7.68152 13.1387 7.81989V11.7485C13.1387 12.267 12.8062 12.5342 12.2637 12.5342C11.7212 12.5342 11.3887 12.267 11.3887 11.7485V10.9628H2.63867V11.7485C2.63867 12.267 2.30617 12.5342 1.76367 12.5342C1.22117 12.5342 0.888672 12.267 0.888672 11.7485V7.81989V6.24847L1.11617 5.96561H0.783672C0.363672 5.96561 0.0136719 5.63561 0.0136719 5.22704C0.0136719 4.81847 0.363672 4.48847 0.783672 4.48847H1.70242L2.37617 2.82275C2.54242 2.40632 3.04117 1.97418 3.47867 1.84847C3.47867 1.84847 4.63367 1.53418 7.01367 1.53418C9.39367 1.53418 10.5487 1.84847 10.5487 1.84847C10.9949 1.97418 11.4937 2.40632 11.6599 2.82275L12.3249 4.48847ZM2.63867 8.60561H4.38867V7.03418H2.63867V8.60561ZM11.3887 8.60561H9.63867V7.03418H11.3887V8.60561ZM2.63836 5.46261H11.3884C11.5459 5.46261 11.4409 4.81833 11.3884 4.6769L10.7496 3.39618C10.7424 3.37682 10.7357 3.35731 10.7291 3.33806C10.6875 3.21668 10.6493 3.10547 10.5134 3.10547H3.51336C3.37742 3.10547 3.33926 3.21668 3.2976 3.33806C3.29099 3.35731 3.2843 3.37682 3.27711 3.39618L2.63836 4.6769C2.58586 4.81833 2.48086 5.46261 2.63836 5.46261Z" fill="#626B74"/>
</svg>
