<svg width="15" height="13" viewBox="0 0 15 13" fill="none" xmlns="http://www.w3.org/2000/svg">
<g clip-path="url(#clip0)">
<g clip-path="url(#clip1)">
<path d="M5.01074 9.39224C5.16684 9.97309 5.20586 10.4813 5.20586 10.5903C5.28391 11.1711 5.86928 11.6068 6.53269 11.5341C7.15708 11.4615 7.6644 10.8807 7.54733 10.2998C7.46928 9.82788 7.19611 9.57375 7.07904 9.10181C6.64977 9.17441 6.2205 9.24702 5.75221 9.31963C5.51806 9.31963 5.28391 9.35593 5.01074 9.39224Z" fill="#626B74"/>
<path d="M5.20617 3.257C4.30861 3.36591 3.80129 4.74545 4.03544 6.3065C4.11349 6.81475 4.54275 7.83125 4.81593 8.77515C5.0891 8.73885 5.36227 8.73885 5.63544 8.70254C6.10373 8.62993 6.533 8.55733 6.96227 8.48472C6.92324 7.54083 7.35251 6.85106 7.19641 5.94346C7.00129 4.3461 6.10373 3.14809 5.20617 3.257Z" fill="#626B74"/>
<path d="M11.0203 6.66946C10.8642 7.28662 10.8642 7.79487 10.8252 7.86748C10.7472 8.44833 10.1618 8.88398 9.5374 8.81137C8.91301 8.73876 8.40569 8.19421 8.52277 7.61335C8.60082 7.1414 8.83496 6.88728 8.99106 6.37903C9.42033 6.45164 9.8496 6.52424 10.3179 6.59685C10.552 6.63315 10.7862 6.63315 11.0203 6.66946Z" fill="#626B74"/>
<path d="M10.7471 0.533607C11.6447 0.642518 12.191 1.98575 11.9569 3.58311C11.8788 4.09136 11.4886 5.10786 11.2154 6.05176C10.9422 6.01546 10.6691 6.01546 10.3959 5.97915C9.9276 5.94285 9.49833 5.87024 9.06906 5.76133C9.06906 4.81744 8.6398 4.12767 8.79589 3.22008C8.99102 1.62272 9.84955 0.424697 10.7471 0.533607Z" fill="#626B74"/>
</g>
</g>
<defs>
<clipPath id="clip0">
<rect width="14" height="12.013" fill="white" transform="translate(0.996094 0.53418)"/>
</clipPath>
<clipPath id="clip1">
<rect width="8" height="11" fill="white" transform="translate(3.99609 0.53418)"/>
</clipPath>
</defs>
</svg>
