<svg width="16" height="17" viewBox="0 0 16 17" fill="none" xmlns="http://www.w3.org/2000/svg">
<g clip-path="url(#clip0)">
<path d="M8 16.3085C12.4183 16.3085 16 12.6577 16 8.15427C16 3.65079 12.4183 0 8 0C3.58172 0 0 3.65079 0 8.15427C0 12.6577 3.58172 16.3085 8 16.3085Z" fill="#F32F24"/>
<path d="M11.9108 4.26688C10.9331 3.37799 9.95529 3.11133 9.95529 3.11133L7.99974 9.33355L6.04418 3.20022C6.04418 3.20022 5.0664 3.46688 4.08862 4.35577C3.02196 5.24466 2.13307 6.66688 2.22196 8.88911C2.31085 10.6669 3.73307 12.178 3.73307 12.178H6.39974C6.39974 12.178 4.08862 11.0224 3.55529 9.24466C2.93307 7.02244 3.91085 5.51133 4.71085 4.80022C5.0664 4.53355 5.51085 4.44466 5.68862 5.06688C6.31085 6.84466 7.99974 12.0002 7.99974 12.0002C7.99974 12.0002 9.68863 6.84466 10.3108 5.06688C10.4886 4.53355 10.9331 4.53355 11.2886 4.80022C12.0886 5.51133 13.1553 7.02244 12.4442 9.06688C11.9108 10.8447 9.59974 12.0002 9.59974 12.0002H12.2664C12.2664 12.0002 13.6886 10.4891 13.7775 8.71133C13.8664 6.57799 12.9775 5.24466 11.9108 4.26688Z" fill="white"/>
</g>
<defs>
<clipPath id="clip0">
<rect width="16" height="16.3085" fill="white"/>
</clipPath>
</defs>
</svg>
