<svg width="65" height="65" viewBox="0 0 65 65" fill="none" xmlns="http://www.w3.org/2000/svg">
<path fill-rule="evenodd" clip-rule="evenodd" d="M32.7013 8.98242C43.0107 8.98242 51.368 17.3398 51.368 27.6491C51.368 37.9584 43.0107 46.3158 32.7013 46.3158C22.392 46.3158 14.0347 37.9584 14.0347 27.6491C14.0347 17.3398 22.392 8.98242 32.7013 8.98242ZM35.3676 54.1837V56.982H40.7009V62.3154H24.7009V56.982H30.0343V54.1832C23.9361 53.5762 18.2937 50.9001 13.9619 46.6213L17.7099 42.8269C21.6785 46.747 27.0097 48.982 32.7009 48.982C44.483 48.982 54.0343 39.4308 54.0343 27.6487C54.0343 22.0479 51.8702 16.7947 48.0604 12.8433L51.8998 9.14147C56.6586 14.0771 59.3676 20.6531 59.3676 27.6487C59.3676 41.4763 48.8431 52.8458 35.3676 54.1837ZM19.368 27.6491C19.368 20.2853 25.3375 14.3157 32.7013 14.3157C40.0651 14.3157 46.0346 20.2853 46.0346 27.6491C46.0346 35.0129 40.0651 40.9824 32.7013 40.9824C25.3375 40.9824 19.368 35.0129 19.368 27.6491Z" fill="#4690D5"/>
</svg>
