<svg width="62" height="65" viewBox="0 0 62 65" fill="none" xmlns="http://www.w3.org/2000/svg">
<path fill-rule="evenodd" clip-rule="evenodd" d="M59.3483 32.9825C59.3483 16.7821 46.8309 3.64917 31.39 3.64917C15.949 3.64917 3.43164 16.7821 3.43164 32.9825C3.43164 49.1829 15.949 62.3158 31.39 62.3158C46.8309 62.3158 59.3483 49.1829 59.3483 32.9825ZM52.6324 24.0612C50.3109 17.982 45.6874 13.131 39.8931 10.6954C41.2525 13.4488 42.319 16.8818 43.0378 20.7619C46.736 21.516 50.008 22.6349 52.6324 24.0612ZM19.7422 20.7619C20.461 16.8818 21.5274 13.4488 22.8869 10.6954C17.0926 13.131 12.469 17.982 10.1475 24.0612C12.7719 22.6349 16.044 21.516 19.7422 20.7619ZM8.51497 32.9825C8.51497 30.5845 12.6545 27.9825 18.9726 26.4177C18.7809 28.5313 18.6816 30.7292 18.6816 32.9825C18.6816 35.2358 18.7809 37.4337 18.9726 39.5473C12.6545 37.9825 8.51497 35.3805 8.51497 32.9825ZM10.1475 41.9038C12.7719 43.3301 16.044 44.449 19.7422 45.2031C20.461 49.0832 21.5274 52.5162 22.8869 55.2697C17.0926 52.834 12.469 47.983 10.1475 41.9038ZM43.0378 45.2031C42.319 49.0832 41.2525 52.5162 39.8931 55.2697C45.6874 52.834 50.3109 47.983 52.6324 41.9038C50.008 43.3301 46.736 44.449 43.0378 45.2031ZM44.0983 32.9825C44.0983 35.2358 43.9991 37.4337 43.8073 39.5473C50.1254 37.9825 54.265 35.3805 54.265 32.9825C54.265 30.5845 50.1254 27.9825 43.8073 26.4177C43.9991 28.5313 44.0983 30.7292 44.0983 32.9825ZM23.765 32.9825C23.765 30.3418 23.9228 27.8084 24.2037 25.4428C26.4584 25.1481 28.8731 24.9825 31.39 24.9825C33.9069 24.9825 36.3215 25.1481 38.5762 25.4428C38.8571 27.8084 39.015 30.3418 39.015 32.9825C39.015 35.6231 38.8571 38.1565 38.5762 40.5221C36.3216 40.8168 33.9069 40.9824 31.39 40.9824C28.8731 40.9824 26.4584 40.8168 24.2037 40.5221C23.9228 38.1565 23.765 35.6231 23.765 32.9825ZM25.1329 46.0104C26.6243 52.6393 29.1044 56.9825 31.39 56.9825C33.6756 56.9825 36.1556 52.6393 37.6471 46.0104C35.6325 46.2116 33.5377 46.3157 31.39 46.3157C29.2423 46.3157 27.1474 46.2116 25.1329 46.0104ZM31.39 8.98251C29.1044 8.98251 26.6243 13.3257 25.1329 19.9545C27.1475 19.7533 29.2423 19.6492 31.39 19.6492C33.5377 19.6492 35.6325 19.7533 37.6471 19.9544C36.1556 13.3257 33.6756 8.98251 31.39 8.98251Z" fill="#4690D5"/>
</svg>
