<svg width="64" height="65" viewBox="0 0 64 65" fill="none" xmlns="http://www.w3.org/2000/svg">
<path fill-rule="evenodd" clip-rule="evenodd" d="M10.7932 48.9824V14.3158H42.2771V48.9824C42.2771 49.9174 42.4349 50.815 42.725 51.6491H13.4169C11.9679 51.6491 10.7932 50.4552 10.7932 48.9824ZM50.1481 56.9824H13.4169C9.06985 56.9824 5.5459 53.4007 5.5459 48.9824V8.98242H42.2771H44.9007H47.5244L47.5244 22.3158H58.019L58.019 24.9824V48.9824C58.019 53.4007 54.4951 56.9824 50.1481 56.9824ZM50.1481 51.6491C51.5971 51.6491 52.7717 50.4552 52.7717 48.9824V27.6491H47.5244L47.5244 48.9824C47.5244 50.4552 48.6991 51.6491 50.1481 51.6491ZM26.5351 19.6491V30.3158H16.0405V19.6491H26.5351ZM37.0298 27.6491V22.3158H29.1588V27.6491H37.0298ZM37.0298 32.9824V38.3158H16.0405V32.9824H37.0298ZM37.0298 46.3158V40.9824H16.0405V46.3158H37.0298Z" fill="#4690D5"/>
</svg>
