<svg width="62" height="65" viewBox="0 0 62 65" fill="none" xmlns="http://www.w3.org/2000/svg">
<path fill-rule="evenodd" clip-rule="evenodd" d="M53.4528 11.649V38.3157C53.4528 41.2612 51.1769 43.649 48.3695 43.649H33.1195V47.4725L44.5938 54.6957L41.9785 59.269L33.1195 53.6922V59.649H28.0361V53.6922L19.1771 59.269L16.5618 54.6957L28.0361 47.4725V43.649H12.7861C9.97869 43.649 7.7028 41.2612 7.7028 38.3157V11.649H5.16113V6.31567H55.9945V11.649H53.4528ZM12.7861 11.649V38.3157H48.3695V11.649H12.7861ZM20.4111 32.9823H25.4945V22.3157H20.4111V32.9823ZM33.1195 32.9823H28.0361V16.9823H33.1195V32.9823ZM35.6611 32.9823H40.7445V24.9823H35.6611V32.9823Z" fill="#4690D5"/>
</svg>
