<svg width="25" height="27" viewBox="0 0 25 27" fill="none" xmlns="http://www.w3.org/2000/svg">
<path fill-rule="evenodd" clip-rule="evenodd" d="M8.63511 6.30009C8.56218 6.4364 8.48939 6.57296 8.41717 6.71741C8.14414 7.26345 8.05462 7.71769 8.15772 8.1301C8.26049 8.54116 8.5876 9.04089 9.43241 9.60409L8.75402 10.6217C7.76435 9.96189 7.17423 9.23864 6.97125 8.42672C6.76861 7.61616 6.98483 6.84741 7.3233 6.17047C7.40395 6.00918 7.48403 5.8591 7.5568 5.7231L7.56653 5.70492C7.63666 5.57387 7.69827 5.45874 7.75324 5.34879C7.87003 5.11521 7.93211 4.95186 7.95497 4.8147C7.98656 4.62514 7.97313 4.3542 7.43781 3.81888L8.30259 2.9541C8.99025 3.64177 9.28258 4.28806 9.16131 5.01573C9.10774 5.33719 8.97874 5.63245 8.84712 5.89571C8.78429 6.02137 8.7152 6.15046 8.64762 6.27673C8.64344 6.28453 8.63927 6.29232 8.63511 6.30009ZM12.304 6.3001C12.2311 6.4364 12.1583 6.57296 12.0861 6.71741C11.8131 7.26345 11.7235 7.71768 11.8266 8.1301C11.9294 8.54117 12.2565 9.0409 13.1013 9.6041L12.423 10.6217C11.4333 9.9619 10.8432 9.23865 10.6402 8.42673C10.4375 7.61617 10.6537 6.84741 10.9922 6.17047C11.0729 6.00918 11.1529 5.8591 11.2257 5.7231L11.2355 5.70482C11.3056 5.57381 11.3672 5.4587 11.4222 5.34878C11.539 5.1152 11.6011 4.95184 11.6239 4.81468C11.6555 4.62512 11.6421 4.35419 11.1068 3.81888L11.9716 2.9541C12.6592 3.64177 12.9515 4.28808 12.8303 5.01575C12.7767 5.33721 12.6477 5.63247 12.516 5.89572C12.4532 6.02134 12.3841 6.1504 12.3166 6.27663L12.304 6.3001ZM3.58984 11.9474L18.2656 11.9474V14.3933H21.8005L21.9163 14.8565C22.1403 15.7524 22.222 17.1317 21.6624 18.3224C21.3767 18.9303 20.9234 19.4874 20.2473 19.8878C19.6595 20.236 18.931 20.4493 18.0471 20.4977C17.9917 20.7254 17.9239 20.952 17.8418 21.1695C17.5311 21.9919 16.904 22.9385 15.7323 22.9385C15.2399 22.9385 14.6605 22.9423 14.0691 22.9461C12.8557 22.9539 11.5921 22.962 10.9277 22.9389C10.2633 22.962 8.99972 22.9539 7.78635 22.9461C7.19496 22.9423 6.61549 22.9385 6.12316 22.9385C4.95148 22.9385 4.32433 21.9919 4.01366 21.1695C3.6908 20.3148 3.58984 19.3197 3.58984 18.664V11.9474ZM18.2656 19.2533C18.8461 19.1894 19.2878 19.0347 19.6241 18.8355C20.0666 18.5735 20.3624 18.2133 20.5556 17.8021C20.8764 17.1196 20.9126 16.2952 20.8187 15.6163H18.2656V19.2533ZM17.0426 13.1703L4.81282 13.1703V18.664C4.81282 19.2293 4.90405 20.0657 5.15774 20.7373C5.42362 21.4412 5.75738 21.7156 6.12316 21.7156C6.64215 21.7156 7.24003 21.7194 7.84175 21.7233C9.04987 21.7312 10.2735 21.7391 10.9053 21.716L10.9277 21.7151L10.9501 21.716C11.5819 21.7391 12.8055 21.7312 14.0137 21.7233C14.6154 21.7194 15.2133 21.7156 15.7323 21.7156C16.0981 21.7156 16.4318 21.4412 16.6977 20.7373C16.9514 20.0657 17.0426 19.2293 17.0426 18.664V13.1703Z" fill="#2E3945"/>
</svg>
