<svg width="25" height="27" viewBox="0 0 25 27" fill="none" xmlns="http://www.w3.org/2000/svg">
<path fill-rule="evenodd" clip-rule="evenodd" d="M12.0898 2.9541L20.5898 5.63482V13.5594C20.5898 16.405 18.2677 20.1127 12.3445 22.837L12.0898 22.9541L11.8352 22.837C5.91385 20.1136 3.58984 16.4065 3.58984 13.6072V5.63482L12.0898 2.9541ZM4.83375 6.57649V13.6072C4.83375 15.6502 6.57686 18.945 12.0898 21.5549C17.6007 18.9459 19.3459 15.651 19.3459 13.5594V6.57649L12.0898 4.28807L4.83375 6.57649ZM11.9383 7.05372C9.52067 7.05372 7.56076 9.06259 7.56076 11.5407C7.56076 14.0187 9.52067 16.0276 11.9383 16.0276C14.356 16.0276 16.3159 14.0187 16.3159 11.5407C16.3159 9.06259 14.356 7.05372 11.9383 7.05372ZM6.31686 11.5407C6.31686 8.35844 8.83368 5.77874 11.9383 5.77874C15.043 5.77874 17.5598 8.35844 17.5598 11.5407C17.5598 14.7229 15.043 17.3026 11.9383 17.3026C8.83368 17.3026 6.31686 14.7229 6.31686 11.5407ZM11.3164 7.83832H12.5603V11.2766L14.1961 12.9533L13.3166 13.8549L11.3164 11.8047V7.83832Z" fill="#2E3945"/>
</svg>
