<svg width="20" height="20" viewBox="0 0 20 20" fill="none" xmlns="http://www.w3.org/2000/svg">
<path d="M19.5667 16.1288C19.5086 16.4728 19.3902 16.7937 19.2094 17.0936C18.8563 17.683 18.3972 18.1801 17.8842 18.6269C17.5082 18.9541 17.1114 19.2498 16.6607 19.468C15.9959 19.7931 15.3063 19.8623 14.5876 19.684C13.8418 19.4973 13.1335 19.2058 12.448 18.8639C10.1485 17.7187 8.06914 16.2546 6.24323 14.434C4.79539 12.9889 3.59266 11.3486 2.56234 9.57626C2.0181 8.64078 1.53202 7.67594 1.17889 6.64817C1.03556 6.23077 0.908849 5.80918 0.894308 5.36452C0.871459 4.72898 1.07711 4.15427 1.38246 3.61102C1.63173 3.16636 1.93917 2.76783 2.30061 2.41126C2.69113 2.02533 3.09412 1.64568 3.55735 1.35204C3.82116 1.18424 4.11197 1.05629 4.40279 0.936734C4.68322 0.821373 4.96365 0.86542 5.23784 0.995464C5.76754 1.24926 6.18299 1.63939 6.54028 2.09664C7.19877 2.94193 7.72847 3.86482 8.16469 4.84434C8.2374 5.01004 8.30387 5.17994 8.35788 5.35193C8.45135 5.64977 8.39319 5.92035 8.17923 6.14897C8.0816 6.25175 7.97358 6.34823 7.85934 6.43004C7.37741 6.76983 6.8581 7.03621 6.31178 7.25644C6.237 7.28581 6.16845 7.32776 6.09575 7.35922C5.44141 7.6235 5.3147 8.47508 5.5245 8.94282C5.90256 9.7902 6.42188 10.5411 7.01597 11.2417C7.88426 12.2631 8.82733 13.2091 9.91789 13.9894C10.4434 14.3648 10.9877 14.713 11.534 15.0549C11.9702 15.3254 12.475 15.2478 12.8967 14.8829C13.0608 14.7403 13.1937 14.5704 13.2934 14.3753C13.5489 13.8719 13.8024 13.3664 14.0662 12.8672C14.1451 12.7183 14.251 12.5798 14.3549 12.4456C14.6104 12.1142 15.0819 12.0177 15.4642 12.2023C15.9232 12.4246 16.3345 12.7225 16.7458 13.0161C17.5767 13.6076 18.3682 14.2452 19.0765 14.9836C19.1741 15.0863 19.2759 15.1933 19.3465 15.315C19.4359 15.466 19.4961 15.6338 19.5688 15.7932C19.5667 15.9044 19.5667 16.0176 19.5667 16.1288Z" fill="white"/>
</svg>
